<?xml version="1.0" encoding="UTF-8"?>
<svg id="a" data-name="图层 3" xmlns="http://www.w3.org/2000/svg" viewBox="0 0 718.31 865.21" width="35" height="35">
  <path d="M653.85,31.32V652.88c0,114.68-126.63,212.08-266.85,212.08-36.72,0-102.49-7.06-171.08-68.42-73.07-65.37-87.55-131.24-87.55-131.24-1.05,.71,23-30.45,55.97-55.89,26.44-20.4,58-37.71,72.65-45.41,3.7-1.95,8.16,.63,8.3,4.81,.79,22.82,6.17,83.26,40.32,118.23,36.43,37.32,90.17,31.05,90.17,31.05,0,0,66.6-6.01,96.39-49.68,6.21-9.11,21.76-36.99,21.76-52.79V31.32c0-3.13,2.54-5.67,5.67-5.67h128.58c3.13,0,5.67,2.54,5.67,5.67Z" fill="#fff"/>
  <path d="M507.79,106.23c.32,4.3-4.04,7.4-7.97,5.62-8.25-3.73-21.82-9.08-35.27-10.94-29.93-4.13-51.65,1.43-54.44,2.2-.2,.05-.39,.09-.59,.13-2.36,.38-19.15,3.76-45.33,25.04-12.33,10.02-22.93,20.87-30.11,28.77-3.52,3.88-9.97,1.32-9.86-3.91,.41-19.14,2.65-52.43,12.48-77.81,12.82-33.13,55.42-42.06,59.16-42.79,.18-.03,.33-.07,.51-.12,3.46-1.03,42.72-11.75,80.25,18.07,24.82,19.72,30.23,43.02,31.17,55.74Zm-88.26-43.71c0-5.91-4.79-10.69-10.69-10.69s-10.69,4.78-10.69,10.69,4.79,10.69,10.69,10.69,10.69-4.79,10.69-10.69Z" fill="#fff"/>
  <path d="M507.71,175.94v157.21c0,4.48-.51,8.93-1.53,13.28-2.17,9.26-6.71,25.79-14.01,39.41-12.42,23.15-31.1,40.37-31.1,40.37,0,0-23.08,23.24-49.75,37.26-31.93,16.78-41.7,20.12-83.95,37.26-23.97,9.73-88.8,26.41-140.41,39.01,25.13-8.06,49.82-16.09,72.01-23.48,46.09-15.35,90.17-34.16,90.17-34.16,0,0,18.64-6.8,40.42-24.84,10.3-8.54,16.51-19.58,31.09-34.16,11.49-11.49,25.85-46.87,32.94-65.65,2.89-7.65,4.45-15.73,4.62-23.91l2.75-134.86c.07-3.19-2.5-5.79-5.69-5.79-6.7,.01-18.51,1.47-31.51,9.75-15.71,10.01-50.08,30.57-77.73,46.58-52.24,30.24-96.92,63.59-100.45,66.08-2.76,2.54-43.88,21.38-73.68,51.91-20.06,20.57-33.07,46.48-39.27,60.76-1.92,4.43,2.2,9.09,6.83,7.69,13.17-4.01,36.4-12.49,60.43-28.08,50.4-32.7,119.56-72.65,145.29-87.36,4.24-2.42,9.34,1.28,8.36,6.07-2.42,11.71-7.88,30.25-19.95,47.13-18.37,25.69-52.39,47.43-55.71,49.52-.17,.11-.35,.21-.53,.3l-164.26,79.53c1.94-27.85,8.06-56.5,8.96-60.55,.07-.33,.17-.64,.3-.95,1.58-3.76,12.73-29.76,27.79-52.32,13.61-20.39,31.24-37.54,33.87-40.05,.21-.21,.44-.4,.69-.57l70.44-48.85c5.28-3.66,1.36-11.87-4.81-10.09-.23,.06-.46,.13-.69,.19-28.14,7.95-61.29,8.5-74.63,0-11.68-7.45-17.2-23.25-18.4-27.09-.17-.55-.25-1.11-.25-1.68v-31.94c0-4.95,5.89-7.52,9.52-4.15,4.34,4.04,9.77,8.59,15.35,12.08,11.97,7.46,24.88,9.31,24.88,9.31,0,0,34.56,10.77,105.71-34.16,43.27-25.84,91.49-70.98,146.14-68.31,32.93,1.01,46.38,24.16,49.18,29.82,.38,.77,.57,1.62,.57,2.48Z" fill="#ccc"/>
  <path d="M455.27,192.89c3.19,0,5.76,2.6,5.69,5.79l-2.75,134.86c-.17,8.18-1.73,16.26-4.62,23.91-7.09,18.78-21.45,54.16-32.94,65.65-14.58,14.58-20.79,25.62-31.09,34.16-21.78,18.04-40.42,24.84-40.42,24.84,0,0-44.08,18.81-90.17,34.16-22.19,7.39-46.88,15.42-72.01,23.48-29.2,7.15-54.17,12.98-65.11,15.52-3.23,.75-6.41-1.43-6.87-4.71-1.24-8.75-3.12-25.82-2.15-43.61,.07-1.39,.16-2.78,.26-4.17l164.26-79.53c.18-.09,.36-.19,.53-.3,3.32-2.09,37.34-23.83,55.71-49.52,12.07-16.88,17.53-35.42,19.95-47.13,.98-4.79-4.12-8.49-8.36-6.07-25.73,14.71-94.89,54.66-145.29,87.36-24.03,15.59-47.26,24.07-60.43,28.08-4.63,1.4-8.75-3.26-6.83-7.69,6.2-14.28,19.21-40.19,39.27-60.76,29.8-30.53,70.92-49.37,73.68-51.91,3.53-2.49,48.21-35.84,100.45-66.08,27.65-16.01,62.02-36.57,77.73-46.58,13-8.28,24.81-9.74,31.51-9.75Z" fill="#fff"/>
  <circle cx="408.84" cy="62.52" r="10.69" fill="#ccc"/>
  <path d="M328.53,75.33c3.9,0,6.64,3.84,5.36,7.52-1.14,3.26-2.42,7.23-3.41,11.11-.9,3.54-1.84,9.54-2.45,13.77-.4,2.79-2.79,4.86-5.61,4.86h-63.39c-3.54,0-6.3-3.24-5.57-6.71,3.29-15.57,17.47-29.47,33.25-30.53,.16-.02,.32-.02,.48-.02h41.34Z" fill="#ccc"/>
  <path d="M121.85,555.26c10.94-2.54,35.91-8.37,65.11-15.52-72.95,23.44-149.57,47.18-179.37,56.38-4.94,1.52-9.16-3.83-6.53-8.29,4.61-7.81,11.76-18.28,21.6-28.1,18.89-18.87,46.91-35.59,49.55-37.15,.13-.08,.26-.15,.4-.21l40.48-19.6c-.1,1.39-.19,2.78-.26,4.17-.97,17.79,.91,34.86,2.15,43.61,.46,3.28,3.64,5.46,6.87,4.71Z" fill="#ccc"/>
</svg>