<?xml version="1.0" encoding="UTF-8"?>
<svg id="a" data-name="图层 1" xmlns="http://www.w3.org/2000/svg" viewBox="0 0 739.56 894.74" width="35" height="35">
  <path d="M430.37,81.35c5.91,0,10.69,4.79,10.69,10.7s-4.78,10.69-10.69,10.69-10.69-4.79-10.69-10.69,4.79-10.7,10.69-10.7Z" fill="#666"/>
  <path d="M529.24,205.47v157.21c0,4.47-.51,8.92-1.53,13.28-2.17,9.26-6.71,25.79-14.01,39.41-12.42,23.15-31.1,40.36-31.1,40.36,0,0-23.08,23.25-49.75,37.27-31.93,16.78-41.7,20.12-83.95,37.26-23.98,9.72-88.84,26.41-140.46,39.03,25.14-8.08,49.85-16.12,72.06-23.51,46.09-15.34,90.17-34.15,90.17-34.15,0,0,18.64-6.8,40.42-24.84,10.3-8.54,16.51-19.58,31.09-34.16,11.49-11.49,25.85-46.88,32.94-65.65,2.89-7.65,4.45-15.73,4.62-23.91l2.75-134.86c.07-3.19-2.5-5.79-5.68-5.79-6.71,0-18.52,1.47-31.52,9.75-15.71,10-50.07,30.56-77.73,46.57-52.24,30.25-96.92,63.6-100.45,66.09-2.76,2.54-43.88,21.37-73.67,51.91-20.07,20.56-33.08,46.48-39.28,60.76-1.92,4.43,2.21,9.09,6.83,7.68,13.17-4,36.4-12.49,60.43-28.08,50.4-32.69,119.57-72.64,145.29-87.35,4.24-2.43,9.35,1.28,8.36,6.06-2.41,11.71-7.88,30.26-19.95,47.14-18.37,25.69-52.38,47.43-55.7,49.52-.18,.11-.36,.2-.54,.29l-164.26,79.53c1.94-27.85,8.07-56.49,8.96-60.54,.07-.33,.17-.64,.3-.95,1.58-3.76,12.73-29.77,27.79-52.33,13.61-20.39,31.25-37.54,33.87-40.05,.22-.2,.45-.39,.69-.56l70.45-48.85c5.28-3.67,1.36-11.87-4.82-10.1-.23,.07-.46,.13-.69,.2-28.13,7.94-61.29,8.5-74.62,0-11.69-7.45-17.21-23.25-18.41-27.09-.17-.55-.25-1.11-.25-1.68v-31.94c0-4.95,5.89-7.52,9.52-4.15,4.35,4.03,9.77,8.59,15.35,12.07,11.97,7.47,24.88,9.32,24.88,9.32,0,0,34.57,10.76,105.72-34.16,43.26-25.84,91.48-70.98,146.13-68.31,32.93,1,46.38,24.16,49.18,29.81,.38,.78,.57,1.63,.57,2.49Z" fill="#666"/>
  <path d="M350.06,104.86c3.9,0,6.64,3.84,5.36,7.52-1.14,3.26-2.42,7.22-3.41,11.11-.9,3.54-1.84,9.54-2.45,13.77-.4,2.79-2.79,4.86-5.6,4.86h-63.39c-3.55,0-6.31-3.24-5.58-6.71,3.29-15.57,17.47-29.47,33.25-30.54,.16-.01,.32-.01,.48-.01h41.34Z"/>
  <path d="M529.32,135.76c.32,4.3-4.04,7.4-7.97,5.62-8.24-3.73-21.82-9.08-35.27-10.94-29.93-4.13-51.64,1.43-54.44,2.19-.2,.06-.38,.1-.59,.13-2.36,.39-19.14,3.77-45.33,25.05-12.33,10.01-22.93,20.87-30.1,28.77-3.53,3.88-9.98,1.32-9.86-3.92,.41-19.13,2.65-52.42,12.47-77.8,12.82-33.13,55.42-42.07,59.16-42.79,.18-.04,.33-.08,.51-.13,3.47-1.03,42.72-11.74,80.25,18.08,24.82,19.72,30.23,43.01,31.17,55.74Zm-88.26-43.71c0-5.91-4.78-10.7-10.69-10.7s-10.69,4.79-10.69,10.7,4.79,10.69,10.69,10.69,10.69-4.79,10.69-10.69Z"/>
  <path d="M143.38,584.78c10.94-2.54,35.88-8.36,65.06-15.49-72.94,23.42-149.53,47.16-179.32,56.35-4.94,1.53-9.16-3.83-6.53-8.28,4.61-7.81,11.76-18.28,21.6-28.11,18.89-18.86,46.92-35.59,49.55-37.14,.13-.08,.26-.15,.4-.22l40.48-19.6c-.1,1.4-.19,2.79-.26,4.18-.96,17.79,.91,34.85,2.15,43.6,.46,3.29,3.64,5.46,6.87,4.71Z"/>
  <path d="M476.81,222.42c3.18,0,5.75,2.6,5.68,5.79l-2.75,134.86c-.17,8.18-1.73,16.26-4.62,23.91-7.09,18.77-21.45,54.16-32.94,65.65-14.58,14.58-20.79,25.62-31.09,34.16-21.78,18.04-40.42,24.84-40.42,24.84,0,0-44.08,18.81-90.17,34.15-22.21,7.39-46.92,15.43-72.06,23.51-29.18,7.13-54.12,12.95-65.06,15.49-3.23,.75-6.41-1.42-6.87-4.71-1.24-8.75-3.11-25.81-2.15-43.6,.07-1.39,.16-2.78,.26-4.18l164.26-79.53c.18-.09,.36-.18,.54-.29,3.32-2.09,37.33-23.83,55.7-49.52,12.07-16.88,17.54-35.43,19.95-47.14,.99-4.78-4.12-8.49-8.36-6.06-25.72,14.71-94.89,54.66-145.29,87.35-24.03,15.59-47.26,24.08-60.43,28.08-4.62,1.41-8.75-3.25-6.83-7.68,6.2-14.28,19.21-40.2,39.28-60.76,29.79-30.54,70.91-49.37,73.67-51.91,3.53-2.49,48.21-35.84,100.45-66.09,27.66-16.01,62.02-36.57,77.73-46.57,13-8.28,24.81-9.75,31.52-9.75Z"/>
  <path d="M675.38,60.84V682.41c0,114.67-126.63,212.08-266.85,212.08-36.71,0-102.49-7.06-171.07-68.42-73.07-65.38-87.55-131.24-87.55-131.24-1.06,.7,22.99-30.45,55.96-55.89,26.44-20.41,58-37.71,72.65-45.41,3.7-1.95,8.16,.63,8.3,4.8,.79,22.83,6.18,83.26,40.32,118.23,36.43,37.32,90.17,31.05,90.17,31.05,0,0,66.6-6.01,96.39-49.68,6.21-9.11,21.76-36.98,21.76-52.78V60.84c0-3.13,2.54-5.66,5.67-5.66h128.59c3.13,0,5.66,2.53,5.66,5.66Z"/>
</svg>